<svg width="350" height="97" viewBox="0 0 350 97" fill="none" xmlns="http://www.w3.org/2000/svg">
<path d="M36.78 96.2082C29.0667 96.2082 22.48 94.6049 17.02 91.3982C11.56 88.1915 7.35667 83.9449 4.41 78.6582C1.55 73.3715 0.12 67.6515 0.12 61.4982C0.12 54.9115 1.55 48.8882 4.41 43.4282C7.27 37.9682 11.43 33.5915 16.89 30.2982C22.35 27.0049 28.98 25.3582 36.78 25.3582C44.4933 25.3582 51.08 27.0049 56.54 30.2982C62 33.5915 66.1167 37.9249 68.89 43.2982C71.75 48.6715 73.18 54.4349 73.18 60.5882C73.18 63.1015 73.0067 65.3115 72.66 67.2182H22.22C22.5667 71.8115 24.2133 75.3215 27.16 77.7482C30.1933 80.0882 33.6167 81.2582 37.43 81.2582C40.4633 81.2582 43.3667 80.5215 46.14 79.0482C48.9133 77.5749 50.82 75.5815 51.86 73.0682L69.54 78.0082C66.8533 83.3815 62.65 87.7582 56.93 91.1382C51.2967 94.5182 44.58 96.2082 36.78 96.2082ZM21.7 54.4782H51.34C50.9067 50.1449 49.3033 46.7215 46.53 44.2082C43.8433 41.6082 40.5067 40.3082 36.52 40.3082C32.5333 40.3082 29.1533 41.6082 26.38 44.2082C23.6933 46.8082 22.1333 50.2315 21.7 54.4782ZM145.397 94.9082L127.587 67.6082L120.307 75.0182V94.9082H99.507V0.00820065H120.307V54.8682L143.447 26.6582H165.417L140.847 56.0382L167.497 94.9082H145.397ZM298.321 94.9082H277.521V56.5582C277.521 52.1382 276.697 48.8882 275.051 46.8082C273.404 44.7282 271.281 43.6882 268.681 43.6882C265.907 43.6882 263.177 44.8149 260.491 47.0682C257.804 49.3215 255.897 52.2249 254.771 55.7782V94.9082H233.971V56.5582C233.971 52.0515 233.147 48.8015 231.501 46.8082C229.854 44.7282 227.731 43.6882 225.131 43.6882C222.357 43.6882 219.627 44.8149 216.941 47.0682C214.341 49.3215 212.434 52.2249 211.221 55.7782V94.9082H190.421V26.6582H209.141V38.0982C211.654 34.0249 215.077 30.9049 219.411 28.7382C223.744 26.4849 228.727 25.3582 234.361 25.3582C239.994 25.3582 244.327 26.7015 247.361 29.3882C250.394 31.9882 252.344 35.0649 253.211 38.6182C255.811 34.4582 259.234 31.2082 263.481 28.8682C267.814 26.5282 272.667 25.3582 278.041 25.3582C282.374 25.3582 285.841 26.1815 288.441 27.8282C291.127 29.3882 293.164 31.4682 294.551 34.0682C296.024 36.6682 297.021 39.4849 297.541 42.5182C298.061 45.4649 298.321 48.3682 298.321 51.2282V94.9082ZM328.815 18.8582V0.00820065H349.615V18.8582H328.815ZM328.815 94.9082V26.6582H349.615V94.9082H328.815Z" fill="#5B5B5B"/>
</svg>
