<svg width="392" height="97" viewBox="0 0 392 97" fill="none" xmlns="http://www.w3.org/2000/svg">
<path d="M36.78 96.3C30.9733 96.3 25.8167 95.39 21.31 93.57C16.8033 91.6633 12.9467 89.1067 9.74 85.9C6.62 82.6933 4.23667 79.01 2.59 74.85C0.943333 70.6033 0.12 66.1833 0.12 61.59C0.12 55.0033 1.55 49.0233 4.41 43.65C7.35667 38.19 11.56 33.8133 17.02 30.52C22.48 27.14 29.0667 25.45 36.78 25.45C44.4933 25.45 51.0367 27.0967 56.41 30.39C61.87 33.6833 66.03 38.0167 68.89 43.39C71.75 48.6767 73.18 54.44 73.18 60.68C73.18 61.8933 73.0933 63.1067 72.92 64.32C72.8333 65.4467 72.7467 66.4433 72.66 67.31H22.22C22.48 70.3433 23.3033 72.9 24.69 74.98C26.1633 77.06 28.0267 78.6633 30.28 79.79C32.5333 80.83 34.9167 81.35 37.43 81.35C40.55 81.35 43.4533 80.6133 46.14 79.14C48.9133 77.6667 50.82 75.6733 51.86 73.16L69.54 78.1C67.8067 81.6533 65.3367 84.8167 62.13 87.59C59.01 90.2767 55.2833 92.4 50.95 93.96C46.7033 95.52 41.98 96.3 36.78 96.3ZM21.7 54.57H51.34C50.9933 51.71 50.17 49.24 48.87 47.16C47.57 44.9933 45.8367 43.3467 43.67 42.22C41.5033 41.0067 39.12 40.4 36.52 40.4C33.8333 40.4 31.4067 41.0067 29.24 42.22C27.16 43.3467 25.47 44.9933 24.17 47.16C22.87 49.24 22.0467 51.71 21.7 54.57ZM145.397 95L127.587 67.7L120.307 75.11V95H99.507V0.0999975H120.307V54.96L143.447 26.75H165.417L140.847 56.13L167.497 95H145.397ZM219.493 96.3C213.686 96.3 208.486 95.3467 203.893 93.44C199.386 91.5333 195.573 88.9333 192.453 85.64C189.333 82.3467 186.95 78.5767 185.303 74.33C183.743 70.0833 182.963 65.62 182.963 60.94C182.963 56.1733 183.743 51.6667 185.303 47.42C186.95 43.1733 189.333 39.4033 192.453 36.11C195.573 32.8167 199.386 30.2167 203.893 28.31C208.486 26.4033 213.686 25.45 219.493 25.45C225.3 25.45 230.456 26.4033 234.963 28.31C239.47 30.2167 243.283 32.8167 246.403 36.11C249.523 39.4033 251.906 43.1733 253.553 47.42C255.2 51.6667 256.023 56.1733 256.023 60.94C256.023 65.62 255.2 70.0833 253.553 74.33C251.906 78.5767 249.523 82.3467 246.403 85.64C243.283 88.9333 239.47 91.5333 234.963 93.44C230.456 95.3467 225.3 96.3 219.493 96.3ZM204.283 60.94C204.283 64.4933 204.933 67.6133 206.233 70.3C207.62 72.9867 209.44 75.0667 211.693 76.54C213.946 78.0133 216.546 78.75 219.493 78.75C222.353 78.75 224.91 78.0133 227.163 76.54C229.503 74.98 231.323 72.8567 232.623 70.17C233.923 67.4833 234.573 64.4067 234.573 60.94C234.573 57.3867 233.923 54.2667 232.623 51.58C231.323 48.8933 229.503 46.8133 227.163 45.34C224.91 43.8667 222.353 43.13 219.493 43.13C216.546 43.13 213.946 43.8667 211.693 45.34C209.44 46.8133 207.62 48.8933 206.233 51.58C204.933 54.2667 204.283 57.3867 204.283 60.94ZM391.139 95H370.339V56.65C370.339 52.23 369.515 48.98 367.869 46.9C366.222 44.82 364.099 43.78 361.499 43.78C358.725 43.78 355.995 44.9067 353.309 47.16C350.622 49.4133 348.715 52.3167 347.589 55.87V95H326.789V56.65C326.789 52.1433 325.965 48.8933 324.319 46.9C322.672 44.82 320.549 43.78 317.949 43.78C315.262 43.78 312.575 44.9067 309.889 47.16C307.202 49.4133 305.252 52.3167 304.039 55.87V95H283.239V26.75H301.959V38.19C304.472 34.1167 307.852 30.9967 312.099 28.83C316.432 26.5767 321.459 25.45 327.179 25.45C332.812 25.45 337.145 26.7933 340.179 29.48C343.212 32.08 345.162 35.1567 346.029 38.71C348.629 34.4633 352.052 31.2133 356.299 28.96C360.632 26.62 365.485 25.45 370.859 25.45C375.192 25.45 378.702 26.2733 381.389 27.92C384.075 29.48 386.112 31.56 387.499 34.16C388.885 36.76 389.839 39.5767 390.359 42.61C390.879 45.5567 391.139 48.46 391.139 51.32V95Z" fill="#5B5B5B"/>
</svg>
