<svg width="32" height="32" viewBox="0 0 32 32" fill="none" xmlns="http://www.w3.org/2000/svg">
<path d="M28.6667 14.6959C25.726 14.6959 23.3333 17.032 23.3333 19.9033V20.8543C22.1527 20.4422 19.8687 19.9033 16 19.9033C12.1313 19.9033 9.848 20.4422 8.66667 20.8543V19.9033C8.66667 17.032 6.274 14.6959 3.33333 14.6959C1.49533 14.6959 0 16.1559 0 17.9505C0 19.2686 0.805334 20.4487 2.05267 20.9558C2.426 21.1088 2.66667 21.4622 2.66667 21.856L3.33333 24.4597C3.33333 26.7965 5.146 28.7265 7.47067 28.9849C6.92333 29.2401 6.542 29.7817 6.542 30.4131C6.542 31.2892 7.27 32 8.16733 32C9.06467 32 9.79267 31.2892 9.79267 30.4131C9.79267 29.8051 9.438 29.283 8.92333 29.0162H23.0787C22.564 29.2824 22.2093 29.8044 22.2093 30.4131C22.2093 31.2892 22.9373 32 23.8347 32C24.732 32 25.46 31.2892 25.46 30.4131C25.46 29.7817 25.0787 29.2401 24.5313 28.9849C26.854 28.7265 28.6667 26.7965 28.6667 24.4597L29.3333 21.856C29.3333 21.4616 29.574 21.1088 29.9473 20.9558C31.1947 20.4494 32 19.2686 32 17.9505C32 16.1559 30.5047 14.6959 28.6667 14.6959Z" fill="#FF9619"/>
<path d="M10.5 18.3814C11.8873 18.134 13.6933 17.9505 16 17.9505C18.3067 17.9505 20.1127 18.134 21.5 18.3814C22.024 16.0251 23.7427 14.1022 26.0007 13.2385V9.76384C26.0007 4.37159 21.5233 0 16 0C10.4773 0 6 4.37159 6 9.76384V13.2391C8.258 14.1029 9.976 16.0257 10.5 18.3814Z" fill="#FF9619"/>
</svg>
